<svg width="1600" height="900" viewBox="0 0 1600 900" fill="none" xmlns="http://www.w3.org/2000/svg">
  <rect width="1600" height="900" fill="#EFF6EC"/>
  <path d="M0 520L210 360L380 470L590 290L760 445L960 255L1170 430L1370 315L1600 470V900H0V520Z" fill="#DCE9D5"/>
  <path d="M0 640L260 470L515 610L760 430L1030 615L1280 470L1600 620V900H0V640Z" fill="#2F6B4F"/>
  <path d="M210 360L270 410L150 410L210 360Z" fill="white" fill-opacity="0.8"/>
  <path d="M590 290L665 358L515 358L590 290Z" fill="white" fill-opacity="0.85"/>
  <path d="M960 255L1045 340L875 340L960 255Z" fill="white" fill-opacity="0.85"/>
  <text x="140" y="175" font-family="Arial, sans-serif" font-size="56" font-weight="700" fill="#2F4F3D">Karnali Awaits</text>
  <text x="140" y="240" font-family="Arial, sans-serif" font-size="28" fill="#5D6D5A">Local placeholder for production-safe hero imagery</text>
</svg>
